<svg xmlns="http://www.w3.org/2000/svg" viewBox="0 0 32 32">
  <rect width="32" height="32" fill="white"/>
  <rect x="2" y="2" width="8" height="8" fill="black"/>
  <rect x="22" y="2" width="8" height="8" fill="black"/>
  <rect x="2" y="22" width="8" height="8" fill="black"/>
  <rect x="14" y="2" width="2" height="2" fill="black"/>
  <rect x="18" y="2" width="2" height="2" fill="black"/>
  <rect x="14" y="6" width="6" height="2" fill="black"/>
  <rect x="14" y="14" width="2" height="2" fill="black"/>
  <rect x="18" y="14" width="2" height="2" fill="black"/>
  <rect x="22" y="14" width="2" height="2" fill="black"/>
  <rect x="26" y="14" width="2" height="2" fill="black"/>
  <rect x="14" y="18" width="2" height="2" fill="black"/>
  <rect x="18" y="18" width="6" height="2" fill="black"/>
  <rect x="22" y="22" width="2" height="2" fill="black"/>
  <rect x="26" y="22" width="2" height="2" fill="black"/>
  <rect x="22" y="26" width="2" height="2" fill="black"/>
  <rect x="26" y="26" width="2" height="2" fill="black"/>
  <rect x="14" y="22" width="6" height="2" fill="black"/>
  <rect x="22" y="18" width="2" height="2" fill="black"/>
  <rect x="26" y="18" width="2" height="2" fill="black"/>
</svg>